<svg xmlns="http://www.w3.org/2000/svg" width="266.218" height="60.852" viewBox="0 0 266.218 60.852">
  <g id="Group_17273" data-name="Group 17273" transform="translate(-154.999 -1140)">
    <path id="Path_15017" data-name="Path 15017" d="M31.413-20.831a3.916,3.916,0,0,0,.666,2.146,3.476,3.476,0,0,0,1.887,1.443,13.36,13.36,0,0,0,.592-3.7q0-2.516-1.406-2.516a1.482,1.482,0,0,0-1.221.74A3.216,3.216,0,0,0,31.413-20.831ZM3.885-5.883a25.228,25.228,0,0,1,2.146-9.953l-4.773,2.96a1.334,1.334,0,0,1-.777.259.866.866,0,0,1-.7-.389,1.767,1.767,0,0,1-.3-1.092,1.163,1.163,0,0,1,.7-1.073l8.473-5.106a1.9,1.9,0,0,1,1.2-.481,1.575,1.575,0,0,1,1.073.407,1.15,1.15,0,0,1,.462.851.541.541,0,0,1-.111.333,23.448,23.448,0,0,0-3.108,6.993A22.215,22.215,0,0,0,7.141-5.624q0,4.255,2,4.255h.222q1.887-.222,4.458-3.145a34.619,34.619,0,0,0,5.2-9.1,14.934,14.934,0,0,1,1.313-3.663,2.169,2.169,0,0,1,1.831-1.369h.074a1.143,1.143,0,0,1,.907.407,1.5,1.5,0,0,1,.351,1.017,5.126,5.126,0,0,1-.111,1.11,24.035,24.035,0,0,1-1.055,2.7A14.294,14.294,0,0,0,21.2-9.731a22.181,22.181,0,0,0-.185,2.738q0,5.624,1.961,5.624h.185A5.665,5.665,0,0,0,26.2-3.256a34.477,34.477,0,0,0,7.03-11.766A5.936,5.936,0,0,1,29.748-17.3a6.228,6.228,0,0,1-1.258-3.755,4.78,4.78,0,0,1,1.351-3.441A5.111,5.111,0,0,1,33.707-25.9a3.239,3.239,0,0,1,2.7,1.443,6.61,6.61,0,0,1,1,3.885A16.3,16.3,0,0,1,37-17.279a15.291,15.291,0,0,0,4.292-2.183,1.4,1.4,0,0,1,.832-.3.93.93,0,0,1,.722.333,1.133,1.133,0,0,1,.3.777,1.273,1.273,0,0,1-.555,1,15.193,15.193,0,0,1-6.253,2.738,33.377,33.377,0,0,1-2.4,5.439A49.143,49.143,0,0,1,28.86-1.924q-2.923,3.4-6.142,3.552h-.037A3.486,3.486,0,0,1,19.388-.684a14.7,14.7,0,0,1-1.147-5.865Q13.653,1.443,8.917,1.628H8.843Q3.885,1.628,3.885-5.883Zm32.634,1.11a8.213,8.213,0,0,1,1.795-5.088,5.324,5.324,0,0,1,4.347-2.349,3.744,3.744,0,0,1,2.516.851,2.859,2.859,0,0,1,1,2.294,3.936,3.936,0,0,1-1.665,3.293,12.783,12.783,0,0,1-5.032,1.961Q40-2.22,42.143-2.22A8,8,0,0,0,47.73-4.736a.631.631,0,0,1,.462-.148.857.857,0,0,1,.592.259A.828.828,0,0,1,49.062-4a1.284,1.284,0,0,1-.259.74A8.546,8.546,0,0,1,45.88-.869,8.568,8.568,0,0,1,41.718.222a5.527,5.527,0,0,1-3.681-1.276A4.586,4.586,0,0,1,36.519-4.773ZM42.7-9.8A3.046,3.046,0,0,0,40.4-8.418a4.681,4.681,0,0,0-1.11,2.979q4.625-1.591,4.625-3.33Q43.919-9.8,42.7-9.8Zm4.477,5.032A8.213,8.213,0,0,1,48.97-9.861a5.324,5.324,0,0,1,4.347-2.349,3.744,3.744,0,0,1,2.516.851,2.859,2.859,0,0,1,1,2.294,3.936,3.936,0,0,1-1.665,3.293,12.783,12.783,0,0,1-5.032,1.961Q50.653-2.22,52.8-2.22a8,8,0,0,0,5.587-2.516.631.631,0,0,1,.462-.148.857.857,0,0,1,.592.259A.828.828,0,0,1,59.718-4a1.284,1.284,0,0,1-.259.74A8.546,8.546,0,0,1,56.536-.869,8.568,8.568,0,0,1,52.374.222a5.527,5.527,0,0,1-3.681-1.276A4.586,4.586,0,0,1,47.175-4.773ZM53.354-9.8A3.046,3.046,0,0,0,51.06-8.418a4.681,4.681,0,0,0-1.11,2.979q4.625-1.591,4.625-3.33Q54.575-9.8,53.354-9.8ZM65.9-2.664a3.1,3.1,0,0,1,.647-1.85,6.536,6.536,0,0,1,1.406-1.443q.759-.555,1.443-1.147a1.677,1.677,0,0,0,.7-1.11q.019-.518-.425-.518a3.826,3.826,0,0,0-2.59,1.388,16.2,16.2,0,0,0-2.368,3.053A18.711,18.711,0,0,1,62.438-1.24,3.466,3.466,0,0,1,60.088.148q-1.369,0-1.369-3.071A44.078,44.078,0,0,1,59.94-12.8,36.157,36.157,0,0,1,61.66-18.37a12.545,12.545,0,0,1,2.719-4.2,5.272,5.272,0,0,1,3.811-1.7,2.406,2.406,0,0,1,1.906.777,3.314,3.314,0,0,1,.685,2.257,8.856,8.856,0,0,1-1.147,3.756,24.645,24.645,0,0,1-2.775,4.311A48.237,48.237,0,0,1,61.79-7.659a31.219,31.219,0,0,0-.555,4.81q5.069-9.065,9.472-9.065a2.437,2.437,0,0,1,1.831.666,2.516,2.516,0,0,1,.647,1.831,3.686,3.686,0,0,1-.7,2.165A5.808,5.808,0,0,1,70.929-5.7Q68.6-4.292,68.339-2.849v.185q0,.7,1.11.7a4.263,4.263,0,0,0,2.516-1.11,10.2,10.2,0,0,0,2.146-2.22.6.6,0,0,1,.536-.3.82.82,0,0,1,.647.407,1.357,1.357,0,0,1,.3.8,1.264,1.264,0,0,1-.185.684A9.555,9.555,0,0,1,72.594-1,6.22,6.22,0,0,1,69.3.259a4.072,4.072,0,0,1-2.4-.7A2.526,2.526,0,0,1,65.9-2.664ZM67.3-21.238q-1.48,0-3,3.478a27.687,27.687,0,0,0-2.035,6.808q2.368-2.738,3.737-4.662a12.326,12.326,0,0,0,1.5-2.627,5.858,5.858,0,0,0,.462-2.09Q67.969-21.238,67.3-21.238ZM73.815-4.773a8.213,8.213,0,0,1,1.794-5.088,5.324,5.324,0,0,1,4.348-2.349,3.744,3.744,0,0,1,2.516.851,2.859,2.859,0,0,1,1,2.294,3.936,3.936,0,0,1-1.665,3.293,12.783,12.783,0,0,1-5.032,1.961q.518,1.591,2.664,1.591a8,8,0,0,0,5.587-2.516.631.631,0,0,1,.463-.148.857.857,0,0,1,.592.259A.828.828,0,0,1,86.358-4a1.284,1.284,0,0,1-.259.74A8.547,8.547,0,0,1,83.176-.869,8.568,8.568,0,0,1,79.013.222a5.527,5.527,0,0,1-3.681-1.276A4.586,4.586,0,0,1,73.815-4.773ZM79.994-9.8A3.046,3.046,0,0,0,77.7-8.418a4.681,4.681,0,0,0-1.11,2.979q4.625-1.591,4.625-3.33Q81.215-9.8,79.994-9.8Zm15.1,7.326a7.927,7.927,0,0,0,3.4-2.183.576.576,0,0,1,.425-.148q.278,0,.592.5a1.652,1.652,0,0,1,.314.777.976.976,0,0,1-.074.425,7.841,7.841,0,0,1-2.96,2.331,7.463,7.463,0,0,1-2.96.814q-2.146,0-2.146-2.331a12.531,12.531,0,0,1,.74-3.515q.74-2.294.74-2.46t-.074-.167h-.037A11.8,11.8,0,0,0,90.41-5.494,20.843,20.843,0,0,0,87.949-1.7,4.773,4.773,0,0,1,87.19-.278a1.4,1.4,0,0,1-1.018.315Q84.8,0,84.8-2.775a24.545,24.545,0,0,1,1.628-8.1A1.7,1.7,0,0,1,88.06-12.21a1,1,0,0,1,.74.3.868.868,0,0,1,.3.61,1.59,1.59,0,0,1-.037.425A34.133,34.133,0,0,0,87.69-5.4a22.734,22.734,0,0,1,3.774-5.087,5.175,5.175,0,0,1,3.293-1.758,1.962,1.962,0,0,1,1.3.462,1.3,1.3,0,0,1,.555.981,16.4,16.4,0,0,1-.943,3.681,34.971,34.971,0,0,0-1.018,3.385,6.515,6.515,0,0,0-.074.907q0,.389.241.37T95.09-2.479Zm2.923-1.739A8.851,8.851,0,0,1,99.937-9.75a5.518,5.518,0,0,1,4.4-2.5,4.084,4.084,0,0,1,1.295.222q1.7-12.284,6.882-12.284a2.572,2.572,0,0,1,1.868.74,2.639,2.639,0,0,1,.832,1.739,5.979,5.979,0,0,1,.037.777,13.894,13.894,0,0,1-1.887,6.7q-1.036,1.924-1.646,2.923t-2.128,3.182q-1.517,2.183-1.739,2.516V-5.4q0,3.182,1.7,3.182,1.924,0,4-2.7a.811.811,0,0,1,.592-.185,1.151,1.151,0,0,1,.777.333,1.017,1.017,0,0,1,.37.777,1.426,1.426,0,0,1-.3.851Q112.443.111,109.261.111a3.8,3.8,0,0,1-3.626-2.553A3.885,3.885,0,0,1,101.75.185a3.4,3.4,0,0,1-2.664-1.221A4.644,4.644,0,0,1,98.013-4.218ZM102.342-2.4a1.948,1.948,0,0,0,1.684-.98,9.448,9.448,0,0,0,1.018-3.57l.444-2.812a4,4,0,0,0-3.256,1.628,5.683,5.683,0,0,0-1.295,3.626v.407Q101.047-2.4,102.342-2.4Zm9.62-18.833q-1.221,0-1.961,2a25.637,25.637,0,0,0-.833,2.46,72.227,72.227,0,0,0-1.239,7.456,4.839,4.839,0,0,0,.3-.518q.074-.074.888-1.351t1.443-2.387a24.174,24.174,0,0,0,1.369-3,9.2,9.2,0,0,0,.74-3.274Q112.665-21.238,111.962-21.238Zm24.79,10.508a2.279,2.279,0,0,0,1.369,2.072,6.471,6.471,0,0,0,.444-2.035q0-1.332-.851-1.332a.819.819,0,0,0-.685.388A1.519,1.519,0,0,0,136.752-10.73Zm3,4.44a13.736,13.736,0,0,1-3.774,5.254A5.923,5.923,0,0,1,132.2.481q-2.553,0-3.145-3.034-1.887,2.96-4.329,2.96a3.679,3.679,0,0,1-2.9-1.24,4.858,4.858,0,0,1-1.091-3.33,8.693,8.693,0,0,1,.925-3.94q.444-.888.777-1.48t.777-1.239q.444-.648.481-.685.629-.925,1.295-.925a1.556,1.556,0,0,1,1.091.388q.426.389.425.629a.872.872,0,0,1-.074.388q-.407.481-.611.777t-.5.7a9.015,9.015,0,0,0-1.776,5.106q0,2.368,1.443,2.368,1.85,0,4.033-4.995l.592-1.332q.888-3.293,1.924-3.293h.111q1.295,0,1.295.814a7.721,7.721,0,0,1-.888,2.442,10.115,10.115,0,0,0-1.147,4.255q0,2.22,1.517,2.22A3.617,3.617,0,0,0,134.9-3.2a9.948,9.948,0,0,0,2.072-3.053,6.582,6.582,0,0,0,.37-.666,5.27,5.27,0,0,1-2.09-1.813,4.266,4.266,0,0,1-.758-2.386,2.872,2.872,0,0,1,.87-2.109,3.328,3.328,0,0,1,2.46-.87,2.814,2.814,0,0,1,2.128,1.055,3.666,3.666,0,0,1,.8,2.387,8.943,8.943,0,0,1-.3,2.442,13.882,13.882,0,0,0,3.589-.74,1.137,1.137,0,0,1,.611-.185.741.741,0,0,1,.574.314,1.268,1.268,0,0,1,.259.832.7.7,0,0,1-.555.7,11.784,11.784,0,0,1-4.588,1.036Zm1.369,2.442A8.555,8.555,0,0,1,143.5-9.786a6.9,6.9,0,0,1,5.088-2.609q1.517,0,1.517.777v.222h.851q1.036,0,1.036.962v.222L150.96-3.848a1.756,1.756,0,0,0-.037.407q0,.888.629.888,1.406,0,3.33-2.479a.7.7,0,0,1,.518-.333q.37,0,.629.573a2.5,2.5,0,0,1,.259,1,2.162,2.162,0,0,1-.074.648,9.525,9.525,0,0,1-2.22,2.164,4.531,4.531,0,0,1-2.609.98,2.69,2.69,0,0,1-1.924-.647,2.849,2.849,0,0,1-.833-1.757v.074a4.851,4.851,0,0,1-1.665,1.85,4.744,4.744,0,0,1-2.553.666,2.912,2.912,0,0,1-2.387-1.128A4.493,4.493,0,0,1,141.118-3.848ZM145.3-2.4a2.518,2.518,0,0,0,1.905-1.11,6.2,6.2,0,0,0,1.24-2.442l1-4.144A4.955,4.955,0,0,0,145.6-8.066a6.155,6.155,0,0,0-1.7,3.848Q143.893-2.4,145.3-2.4Zm9.8-3.589V-6.4a1.545,1.545,0,0,1-.833.333.722.722,0,0,1-.592-.314,1.241,1.241,0,0,1-.241-.777.761.761,0,0,1,.444-.7q.444-.24,1.406-.684a33.58,33.58,0,0,1,2.59-9.361,11.95,11.95,0,0,1,2.479-3.719,4.23,4.23,0,0,1,2.886-1.462,2.546,2.546,0,0,1,2.016.7,2.507,2.507,0,0,1,.611,1.7v.259a11.294,11.294,0,0,1-2.053,5.439,22.232,22.232,0,0,1-4.311,4.736,17.322,17.322,0,0,1,3.922-1.036.78.78,0,0,1,.574.314,1.212,1.212,0,0,1,.277.833q0,.518-.629.629a29.222,29.222,0,0,0-5.772,1.887q-.074,1.184-.074,1.85,0,3.515,1.517,3.515,1.776,0,4.107-2.59a.879.879,0,0,1,.648-.259,1.1,1.1,0,0,1,.74.314,1,1,0,0,1,.352.777,1.417,1.417,0,0,1-.444.943Q161.875.111,158.989.111A3.136,3.136,0,0,1,155.973-1.5,9.57,9.57,0,0,1,155.1-5.994Zm7.918-14.023q-1.036,0-2.072,1.554a17.865,17.865,0,0,0-2.627,7.252q.074-.074.907-1t1.036-1.147q.2-.222.888-1.054a7.8,7.8,0,0,0,.906-1.276q.222-.444.611-1.184a5.175,5.175,0,0,0,.518-1.406,6.284,6.284,0,0,0,.129-1.184Q163.318-19.98,163.022-20.017Zm.7,15.133A8.064,8.064,0,0,1,165.5-9.9a5.428,5.428,0,0,1,4.477-2.312,3.54,3.54,0,0,1,2.5.87,2.668,2.668,0,0,1,.943,2.016,3.5,3.5,0,0,1-.7,2.109q-.7.962-1.221.962a.948.948,0,0,1-.777-.314.973.973,0,0,1-.259-.611,1.755,1.755,0,0,1,.24-.758,2.024,2.024,0,0,0,.241-.944.832.832,0,0,0-.333-.721,1.292,1.292,0,0,0-.777-.241,3.043,3.043,0,0,0-2.276,1.3,5.588,5.588,0,0,0-1.091,3.7A2.9,2.9,0,0,0,167.24-2.7a2.752,2.752,0,0,0,2.035.777q2.627,0,5.661-3.33a.672.672,0,0,1,.481-.222.656.656,0,0,1,.5.314,1.079,1.079,0,0,1,.241.666,1.21,1.21,0,0,1-.148.611A9.814,9.814,0,0,1,173.067-1,7.8,7.8,0,0,1,168.7.222a4.864,4.864,0,0,1-4.051-2.035A4.941,4.941,0,0,1,163.725-4.884ZM174.2-2.627q0-.777.074-1.591a51.993,51.993,0,0,1,2.479-13.061,16.471,16.471,0,0,1,2.979-5.569,5.385,5.385,0,0,1,4.126-2.2,2.778,2.778,0,0,1,2.109.814,2.979,2.979,0,0,1,.777,2.146v.259a13.026,13.026,0,0,1-2.275,5.439,41.143,41.143,0,0,1-6.715,7.252l-.666,3.7a16.554,16.554,0,0,1,4.125-4.977q2.313-1.794,3.312-1.794a2.5,2.5,0,0,1,1.554.425,1.174,1.174,0,0,1,.555.906,3.123,3.123,0,0,1-.185,1.017q-.185.537-1.332,3.2a11.447,11.447,0,0,0-1.147,3.848q0,.37.426.37a5.449,5.449,0,0,0,1.868-.851,21.22,21.22,0,0,0,2.664-1.85.886.886,0,0,1,.462-.111q.278,0,.555.444a2.1,2.1,0,0,1,.277,1.128,1.47,1.47,0,0,1-.74,1.2Q185.74.037,182.891.037a1.758,1.758,0,0,1-1.24-.555,2.44,2.44,0,0,1-.573-1.813,10.46,10.46,0,0,1,.888-3.515q.888-2.257.888-2.405t-.111-.148a1.264,1.264,0,0,0-.592.3,15.23,15.23,0,0,0-2.886,2.941A12.262,12.262,0,0,0,177.3-1.942a6.07,6.07,0,0,1-.74,1.628,1.3,1.3,0,0,1-1.036.352,1.047,1.047,0,0,1-1.036-.684A5.177,5.177,0,0,1,174.2-2.627ZM183-22.052q-1.7,0-3.515,4.921a30.025,30.025,0,0,0-1.406,5.18,34.349,34.349,0,0,0,3.959-5.014,8.757,8.757,0,0,0,1.739-4.31A.687.687,0,0,0,183-22.052Z" transform="translate(231 1191)" fill="#fff"/>
    <path id="noun-tv-4922591" d="M154.8,78.4v25.821c0,5.047,4.716,9.15,10.513,9.15h38.954c5.8,0,10.513-4.1,10.513-9.149V78.4c0-5.046-4.716-9.149-10.513-9.149H187.345l14.645-14.8a1.068,1.068,0,0,0-.142-1.65,1.486,1.486,0,0,0-1.9.124L184.79,68.25,169.626,52.929a1.491,1.491,0,0,0-1.9-.124,1.069,1.069,0,0,0-.142,1.65l14.645,14.8h-16.92c-5.8,0-10.513,4.1-10.513,9.151Zm36.326,30.208H167.239a1.182,1.182,0,1,1,0-2.341h23.889a1.182,1.182,0,1,1,0,2.341Zm11.214,0h-5.971a1.182,1.182,0,1,1,0-2.341h5.971a1.182,1.182,0,1,1,0,2.341Zm1.409-32.324a2.78,2.78,0,0,1,2.947,2.565V99.092a2.779,2.779,0,0,1-2.947,2.563H165.829a2.779,2.779,0,0,1-2.947-2.563V78.853a2.78,2.78,0,0,1,2.947-2.565Z" transform="translate(0.199 1087.477)" fill="#fff"/>
  </g>
</svg>
